<?xml version="1.0" encoding="utf-8"?><svg viewBox="0 0 48 48" xmlns="http://www.w3.org/2000/svg" xmlns:xlink="http://www.w3.org/1999/xlink"><style>:root>svg{display:none}:root>svg:target{display:block}</style><svg viewBox="0 0 21 21" id="icon-copy" xmlns="http://www.w3.org/2000/svg"><g fill-rule="evenodd" stroke-linecap="round" stroke-linejoin="round"><path d="M14.5 12.5v-7a2 2 0 0 0-2-2h-7a2 2 0 0 0-2 2v7a2 2 0 0 0 2 2h7a2 2 0 0 0 2-2z"/><path d="M6.5 14.5v1a2 2 0 0 0 2 2h7a2 2 0 0 0 2-2v-7a2 2 0 0 0-2-2h-1"/></g></svg><svg viewBox="0 0 48 48" id="icon-ок" xmlns="http://www.w3.org/2000/svg"><path d="M24 4C12.972 4 4 12.972 4 24s8.972 20 20 20 20-8.972 20-20S35.028 4 24 4zm0 3c9.407 0 17 7.593 17 17s-7.593 17-17 17S7 33.407 7 24 14.593 7 24 7zm7.47 10.986a1.5 1.5 0 0 0-1.03.453l-8.94 8.94-3.94-3.94a1.5 1.5 0 1 0-2.12 2.122l5 5a1.5 1.5 0 0 0 2.12 0l10-10a1.5 1.5 0 0 0-1.09-2.575z"/></svg></svg>