<?xml version="1.0" encoding="utf-8"?><svg viewBox="0 0 682.667 682.667" xmlns="http://www.w3.org/2000/svg" xmlns:xlink="http://www.w3.org/1999/xlink"><style>:root>svg{display:none}:root>svg:target{display:block}</style><svg version="1.0" viewBox="0 0 512 512" id="icon-alert" xmlns="http://www.w3.org/2000/svg"><path d="M232 12.1C134.8 22.9 55.6 85.8 24.1 177.2 15 203.9 11.5 225.3 11.5 256c0 24.3 1.3 35.8 6.2 56.5C44.4 425.8 148.9 505.4 265 500.7c79.5-3.3 150.5-42.9 194.5-108.7 55.8-83.4 55.2-192.1-1.7-274.7-30.5-44.3-74.9-77.5-126.3-94.4-9.4-3.1-28.9-7.7-40.5-9.4-12.6-1.9-47-2.8-59-1.4zm34.3 78.5c6.3 2.1 13 8.3 16.4 15.2l2.8 5.7v189l-2.4 4.9c-3.1 6.3-8.4 11.6-14.7 14.6-3.8 1.9-6.6 2.4-12.4 2.5-12.2 0-21.2-5.5-27.2-16.8l-2.3-4.2-.3-93.9c-.3-107.9-.9-100.1 8.7-109.7 3.5-3.5 7.3-6.2 10.1-7.2 5.9-2 15.5-2.1 21.3-.1zm5.1 261.7c7.7 3.5 14 9.8 17.9 17.6 3 6.1 3.2 7.3 3.2 16.6 0 8.5-.4 10.7-2.4 14.8-3.7 7.5-10.4 14.2-17.9 17.9-6 3-7.5 3.3-15.7 3.3s-9.7-.3-15.7-3.3c-13.4-6.6-21-18.6-21-33.2 0-13.3 6.7-25.1 18-31.7 10.1-5.9 23.3-6.7 33.6-2z"/></svg><svg viewBox="0 0 21 21" id="icon-copy" xmlns="http://www.w3.org/2000/svg"><g fill-rule="evenodd" stroke-linecap="round" stroke-linejoin="round"><path d="M14.5 12.5v-7a2 2 0 0 0-2-2h-7a2 2 0 0 0-2 2v7a2 2 0 0 0 2 2h7a2 2 0 0 0 2-2z"/><path d="M6.5 14.5v1a2 2 0 0 0 2 2h7a2 2 0 0 0 2-2v-7a2 2 0 0 0-2-2h-1"/></g></svg><svg viewBox="0 0 24 24" stroke-width="2" aria-hidden="true" id="x" xmlns="http://www.w3.org/2000/svg"><path d="M6 18 18 6M6 6l12 12"/></svg></svg>