<svg version="1.0" xmlns="http://www.w3.org/2000/svg"
 width="512.000000pt" height="512.000000pt" viewBox="0 0 512.000000 512.000000"
 preserveAspectRatio="xMidYMid meet">

<g transform="translate(0.000000,512.000000) scale(0.100000,-0.100000)"
fill="#000000" stroke="none">
<path d="M2320 4999 c-972 -108 -1764 -737 -2079 -1651 -91 -267 -126 -481
-126 -788 0 -243 13 -358 62 -565 267 -1133 1312 -1929 2473 -1882 795 33
1505 429 1945 1087 558 834 552 1921 -17 2747 -305 443 -749 775 -1263 944
-94 31 -289 77 -405 94 -126 19 -470 28 -590 14z m343 -785 c63 -21 130 -83
164 -152 l28 -57 0 -945 0 -945 -24 -49 c-31 -63 -84 -116 -147 -146 -38 -19
-66 -24 -124 -25 -122 0 -212 55 -272 168 l-23 42 -3 939 c-3 1079 -9 1001 87
1097 35 35 73 62 101 72 59 20 155 21 213 1z m51 -2617 c77 -35 140 -98 179
-176 30 -61 32 -73 32 -166 0 -85 -4 -107 -24 -148 -37 -75 -104 -142 -179
-179 -60 -30 -75 -33 -157 -33 -82 0 -97 3 -157 33 -134 66 -210 186 -210 332
0 133 67 251 180 317 101 59 233 67 336 20z"/>
</g>
</svg>
